<?xml version="1.0" standalone="no"?>
<!DOCTYPE svg PUBLIC "-//W3C//DTD SVG 20010904//EN"
 "http://www.w3.org/TR/2001/REC-SVG-20010904/DTD/svg10.dtd">
<svg version="1.0" xmlns="http://www.w3.org/2000/svg"
 width="225.000000pt" height="225.000000pt" viewBox="0 0 225.000000 225.000000"
 preserveAspectRatio="xMidYMid meet">
<metadata>
Created by potrace 1.16, written by Peter Selinger 2001-2019
</metadata>
<g transform="translate(0.000000,225.000000) scale(0.100000,-0.100000)"
fill="#000000" stroke="none">
<path d="M1180 2132 c0 -6 16 -16 35 -22 19 -6 48 -24 65 -40 26 -24 31 -35
28 -67 -4 -54 -33 -53 -33 1 0 35 -3 40 -30 49 -16 5 -46 25 -65 43 -31 30
-43 34 -87 34 -120 0 -150 -29 -59 -55 60 -18 109 -56 104 -83 -5 -28 -36 -27
-44 3 -7 30 -39 55 -71 55 -13 0 -38 14 -55 31 -29 27 -37 29 -73 24 -99 -17
-141 -52 -234 -197 -53 -84 -97 -124 -200 -183 -45 -26 -90 -58 -101 -72 -27
-35 -26 -78 5 -108 34 -35 53 -32 51 7 -1 41 23 48 61 18 26 -20 28 -20 40 -4
7 10 13 26 13 37 0 20 19 20 63 2 14 -6 17 -1 18 31 0 36 7 44 71 98 l71 59
-7 -39 c-13 -75 -73 -179 -156 -270 -120 -131 -175 -260 -136 -319 18 -27 24
-29 46 -15 12 7 12 12 2 22 -32 32 9 133 92 226 70 79 108 134 167 246 48 90
49 91 49 51 0 -31 -6 -44 -27 -61 l-27 -21 27 -18 c33 -21 38 -70 8 -80 -11
-3 -24 -12 -31 -20 -9 -11 -5 -17 24 -29 32 -13 36 -19 36 -51 0 -31 -4 -37
-32 -47 l-31 -11 22 -19 c29 -23 63 -23 90 0 17 14 23 39 36 143 15 130 39
216 76 276 12 19 25 49 28 66 6 26 14 34 51 45 25 8 83 15 130 15 99 1 153
-20 192 -75 19 -28 23 -45 23 -114 0 -72 -4 -87 -38 -156 -65 -132 -167 -214
-354 -284 -37 -14 -164 -52 -283 -85 -237 -66 -301 -88 -373 -127 -62 -33
-138 -116 -174 -190 -25 -52 -28 -67 -28 -162 0 -91 3 -112 25 -155 66 -136
235 -235 399 -235 130 0 326 82 476 199 318 248 521 325 665 251 60 -31 127
-96 141 -137 30 -92 -15 -216 -117 -320 -99 -101 -220 -145 -342 -122 -75 14
-131 51 -157 105 -24 51 -23 133 2 176 35 62 178 119 258 104 120 -23 128
-169 13 -225 -62 -30 -113 -28 -134 5 -26 38 -9 78 34 82 23 2 34 -1 39 -14 4
-10 2 -19 -5 -22 -21 -7 -13 -22 11 -22 33 0 47 18 47 61 0 81 -99 105 -164
40 -26 -26 -30 -38 -30 -85 -1 -45 4 -59 24 -81 57 -62 145 -72 226 -25 93 53
140 130 131 213 -14 110 -82 160 -222 160 -70 1 -89 -3 -146 -30 -79 -37 -140
-89 -177 -152 -23 -39 -27 -58 -27 -121 0 -64 4 -82 29 -124 36 -61 93 -119
148 -148 35 -19 58 -23 128 -23 74 1 96 5 171 37 114 46 189 97 274 183 115
115 166 242 145 356 -25 133 -136 280 -235 312 -131 42 -283 30 -411 -33 -45
-22 -159 -92 -255 -156 -223 -149 -306 -197 -401 -228 -135 -45 -220 -31 -312
54 -81 75 -80 155 3 265 67 89 116 111 468 211 271 77 342 102 422 154 153 99
283 273 335 449 37 125 0 284 -84 358 -23 21 -151 93 -164 93 -14 0 -4 -25 24
-56 16 -19 35 -52 41 -74 11 -35 10 -43 -4 -58 -13 -12 -19 -13 -29 -4 -9 9
-9 15 0 24 20 20 13 46 -23 87 -19 21 -38 52 -41 69 -3 17 -14 34 -23 37 -32
13 -151 18 -151 7z"/>
<path d="M1738 1673 l-37 -26 19 -27 c11 -16 20 -37 20 -48 0 -11 6 -23 13
-25 10 -4 10 -6 0 -6 -15 -1 -18 -101 -4 -101 24 0 63 48 70 86 10 56 4 70
-21 47 -21 -18 -21 -18 -4 14 19 38 21 84 4 101 -15 15 -16 15 -60 -15z"/>
<path d="M1635 1576 c-28 -62 -31 -86 -11 -86 10 0 13 -13 10 -55 -2 -40 1
-55 10 -55 24 0 64 40 76 75 14 42 6 59 -20 45 -33 -18 -44 -11 -16 11 32 25
36 77 8 102 -10 10 -22 17 -25 17 -4 0 -18 -24 -32 -54z"/>
</g>
</svg>
